<?xml version="1.0" encoding="UTF-8"?>
<svg version="1.1" xmlns="http://www.w3.org/2000/svg" width="800" height="800">
<path d="M0 0 C264 0 528 0 800 0 C800 264 800 528 800 800 C536 800 272 800 0 800 C0 536 0 272 0 0 Z " fill="#F8F8F8" transform="translate(0,0)"/>
<path d="M0 0 C4.25576547 3.7262019 6.24933226 8.65678385 7.16796875 14.15234375 C7.51158622 21.7340969 5.32094194 28.46748597 2.7265625 35.51171875 C2.36046875 36.55585938 1.994375 37.6 1.6171875 38.67578125 C-6.38305705 59.36777177 -21.09658297 78.53360171 -36.2734375 94.51171875 C-36.76263672 95.0334668 -37.25183594 95.55521484 -37.75585938 96.09277344 C-51.4684399 110.63616515 -66.32632148 121.20519752 -83.73364258 130.98266602 C-92.23873585 135.7975406 -100.06159571 141.05823621 -107.65380859 147.20214844 C-109.1742727 148.43153787 -110.71731822 149.63284966 -112.26171875 150.83203125 C-130.82279654 165.48136846 -147.61397677 184.99923189 -153.2734375 208.51171875 C-153.9334375 208.51171875 -154.5934375 208.51171875 -155.2734375 208.51171875 C-155.41531494 209.37345703 -155.55719238 210.23519531 -155.70336914 211.12304688 C-156.24294519 214.33046254 -156.81230465 217.5305494 -157.39453125 220.73046875 C-157.60787109 221.91125 -157.82121094 223.09203125 -158.04101562 224.30859375 C-158.48203233 226.74640038 -158.92469739 229.18390949 -159.36914062 231.62109375 C-165.23476399 264.17266124 -167.10701761 297.94555551 -160.2734375 330.51171875 C-160.05083252 331.57302002 -160.05083252 331.57302002 -159.82373047 332.65576172 C-158.22338739 340.07028868 -156.4359937 347.07415506 -152.74609375 353.765625 C-151.55662417 355.98365449 -150.49037605 358.1851861 -149.45703125 360.4765625 C-145.41543825 369.43520921 -141.10140354 377.55589493 -135.2734375 385.51171875 C-134.71011719 386.28644531 -134.14679688 387.06117188 -133.56640625 387.859375 C-115.57023742 411.75592705 -93.18748344 426.65034285 -63.60986328 431.05761719 C-58.98095079 431.61475834 -54.39925919 431.63820744 -49.7421875 431.609375 C-48.86566528 431.60796005 -47.98914307 431.6065451 -47.08605957 431.60508728 C-44.31514929 431.59953643 -41.54432293 431.58699336 -38.7734375 431.57421875 C-36.88281368 431.56919739 -34.99218857 431.5646356 -33.1015625 431.56054688 C-28.49215567 431.54958315 -23.88281077 431.532353 -19.2734375 431.51171875 C-19.2734375 430.85171875 -19.2734375 430.19171875 -19.2734375 429.51171875 C-18.36078125 429.36476563 -18.36078125 429.36476563 -17.4296875 429.21484375 C-6.13983465 427.28892768 5.07664852 424.77168434 15.7265625 420.51171875 C20.75443695 418.89561625 25.49813668 418.06207936 30.7265625 417.51171875 C30.7265625 416.85171875 30.7265625 416.19171875 30.7265625 415.51171875 C33.3665625 415.18171875 36.0065625 414.85171875 38.7265625 414.51171875 C38.7265625 413.85171875 38.7265625 413.19171875 38.7265625 412.51171875 C39.30019531 412.32738281 39.87382812 412.14304687 40.46484375 411.953125 C50.2452857 408.61382388 59.45639906 404.0430072 68.7265625 399.51171875 C69.3870459 399.19098389 70.0475293 398.87024902 70.72802734 398.53979492 C76.25118932 395.82408968 81.61905477 392.85170277 86.9765625 389.82421875 C87.95802246 389.26968018 88.93948242 388.7151416 89.95068359 388.14379883 C103.9107055 380.19606739 117.67739001 371.85595159 131.26318359 363.28491211 C131.8436142 362.92113968 132.4240448 362.55736725 133.02206421 362.18257141 C134.62659328 361.17599537 136.22748434 360.16362683 137.828125 359.15087891 C141.30156916 357.18653388 144.67063679 356.05695018 148.5234375 355.09375 C151.02013705 354.49795919 151.02013705 354.49795919 154.3515625 352.88671875 C160.82312087 350.25015793 167.70300971 350.35041058 174.6015625 350.38671875 C175.35953125 350.38285156 176.1175 350.37898438 176.8984375 350.375 C182.47296317 350.38491908 182.47296317 350.38491908 184.7265625 351.51171875 C187.26854214 351.90301225 189.80047839 352.25650994 192.3515625 352.57421875 C193.05796875 352.66509766 193.764375 352.75597656 194.4921875 352.84960938 C196.2365666 353.07354994 197.98151384 353.29305693 199.7265625 353.51171875 C199.7265625 354.17171875 199.7265625 354.83171875 199.7265625 355.51171875 C200.5928125 355.63289063 201.4590625 355.7540625 202.3515625 355.87890625 C214.29782219 358.11882994 227.66109597 364.71377307 237.7265625 371.51171875 C237.7265625 372.17171875 237.7265625 372.83171875 237.7265625 373.51171875 C238.37882812 373.73859375 239.03109375 373.96546875 239.703125 374.19921875 C243.73662499 375.95019549 247.36665156 378.20171007 251.1015625 380.51171875 C251.89449707 380.99866211 252.68743164 381.48560547 253.50439453 381.98730469 C259.24380823 385.53497189 264.8660375 389.2341087 270.45361328 393.01489258 C275.15726412 396.18044579 279.98631222 399.06231147 284.91015625 401.875 C287.6690711 403.47830835 290.3560084 405.15992252 293.0390625 406.88671875 C297.38523589 409.68382313 301.78717109 412.3666788 306.2265625 415.01171875 C312.46743084 418.73394537 318.6076037 422.59201437 324.7265625 426.51171875 C337.37745764 434.62760612 337.37745764 434.62760612 350.7265625 441.51171875 C350.7265625 442.17171875 350.7265625 442.83171875 350.7265625 443.51171875 C351.47164062 443.77082031 352.21671875 444.02992188 352.984375 444.296875 C362.21926523 448.38811555 368.58702496 459.2401996 372.3984375 468.20703125 C374.13959249 473.06644175 374.22394527 477.76674175 374.1640625 482.88671875 C374.15358887 483.82281982 374.14311523 484.7589209 374.13232422 485.72338867 C373.95416194 492.47054766 373.26816301 497.66671225 369.7265625 503.51171875 C369.38802246 504.09727539 369.04948242 504.68283203 368.70068359 505.28613281 C362.13532743 516.61032675 354.92138274 527.44771323 344.73046875 535.84375 C343.36398142 536.98115758 342.03875768 538.16955979 340.75390625 539.3984375 C322.64333663 556.62886728 294.5689488 568.91166588 269.6015625 568.73828125 C253.24539071 567.78197282 237.17871402 563.7675526 221.7265625 558.51171875 C221.7265625 557.85171875 221.7265625 557.19171875 221.7265625 556.51171875 C218.0965625 555.85171875 214.4665625 555.19171875 210.7265625 554.51171875 C210.7265625 553.85171875 210.7265625 553.19171875 210.7265625 552.51171875 C209.92605469 552.25648438 209.92605469 552.25648438 209.109375 551.99609375 C208.36429687 551.75375 207.61921875 551.51140625 206.8515625 551.26171875 C206.13226563 551.0296875 205.41296875 550.79765625 204.671875 550.55859375 C195.56632724 547.32213911 186.91114603 543.30058726 178.2265625 539.07421875 C177.06769531 538.51412109 175.90882813 537.95402344 174.71484375 537.37695312 C169.55079327 534.87661908 164.4017722 532.35387349 159.28515625 529.7578125 C155.68557284 527.950712 152.07783 526.39124398 148.2890625 525.01171875 C144.23611253 523.49363597 140.27575406 521.89928853 136.3515625 520.07421875 C118.83640569 511.99806575 100.76983082 505.73472804 81.7265625 502.51171875 C80.8917334 502.35340576 80.0569043 502.19509277 79.19677734 502.03198242 C70.57434522 500.46287225 61.9611887 499.81505034 53.2265625 499.32421875 C52.47977234 499.28091431 51.73298218 499.23760986 50.96356201 499.19299316 C32.73298237 498.15848882 13.10764665 497.08889077 -3.9765625 504.515625 C-6.05521764 505.41708258 -8.12878317 506.16182559 -10.2734375 506.88671875 C-25.44627798 512.5573763 -36.23275457 524.14872557 -43.2734375 538.51171875 C-44.1228082 541.35546228 -44.1228082 541.35546228 -44.2734375 544.51171875 C-44.33660156 545.24132812 -44.39976562 545.9709375 -44.46484375 546.72265625 C-44.88536504 555.32299492 -42.43992131 562.67241927 -37.2734375 569.51171875 C-37.2734375 570.17171875 -37.2734375 570.83171875 -37.2734375 571.51171875 C-50.80278185 568.0426561 -60.78479198 556.48681336 -67.99609375 545.15234375 C-69.39868761 542.25279191 -69.89620933 539.69720111 -70.2734375 536.51171875 C-70.9334375 536.51171875 -71.5934375 536.51171875 -72.2734375 536.51171875 C-74.75851763 527.53941635 -74.82307317 515.17430433 -70.64453125 506.73046875 C-63.31694638 494.87272458 -52.45894062 486.15835681 -40.2734375 479.51171875 C-38.9534375 479.51171875 -37.6334375 479.51171875 -36.2734375 479.51171875 C-36.2734375 478.85171875 -36.2734375 478.19171875 -36.2734375 477.51171875 C-34.6234375 477.18171875 -32.9734375 476.85171875 -31.2734375 476.51171875 C-31.2734375 475.85171875 -31.2734375 475.19171875 -31.2734375 474.51171875 C-32.3871875 474.55554688 -33.5009375 474.599375 -34.6484375 474.64453125 C-39.71514357 474.63785281 -44.37293843 473.59747288 -49.2734375 472.38671875 C-50.19406982 472.16153564 -51.11470215 471.93635254 -52.06323242 471.7043457 C-79.43931409 464.78021233 -102.27582074 451.28792825 -122.2734375 431.51171875 C-122.86487549 430.94074463 -123.45631348 430.36977051 -124.06567383 429.78149414 C-128.07038404 425.87402011 -131.5835979 421.78036322 -134.9609375 417.32421875 C-135.87891844 416.12041486 -136.79943636 414.91854075 -137.72265625 413.71875 C-138.11799561 413.19772705 -138.51333496 412.6767041 -138.9206543 412.13989258 C-140.58606337 410.13545058 -142.41106701 408.33258795 -144.2734375 406.51171875 C-143.177995 410.70155033 -142.07053398 414.88811534 -140.9609375 419.07421875 C-140.65220703 420.25564453 -140.34347656 421.43707031 -140.02539062 422.65429688 C-138.17161337 429.76074174 -138.17161337 429.76074174 -135.54296875 436.6015625 C-134.2734375 439.51171875 -134.2734375 439.51171875 -134.2734375 443.51171875 C-133.6134375 443.51171875 -132.9534375 443.51171875 -132.2734375 443.51171875 C-131.8609375 444.62546875 -131.4484375 445.73921875 -131.0234375 446.88671875 C-127.73846315 455.6129731 -124.22918867 464.05420396 -119.8515625 472.29492188 C-118.07055921 475.68951414 -116.78197786 478.69766606 -116.2734375 482.51171875 C-115.6134375 482.51171875 -114.9534375 482.51171875 -114.2734375 482.51171875 C-113.36464844 484.19974609 -113.36464844 484.19974609 -112.4375 485.921875 C-107.75819486 494.52351117 -102.92408164 502.87542137 -97.32275391 510.91430664 C-94.2734375 515.32139713 -94.2734375 515.32139713 -94.2734375 517.51171875 C-96.2734375 517.51171875 -96.2734375 517.51171875 -98.7109375 515.32421875 C-101.2734375 512.51171875 -101.2734375 512.51171875 -102.59765625 510.265625 C-104.68977476 506.82752814 -107.13245115 503.77150174 -109.6484375 500.63671875 C-114.5962513 494.4519515 -119.34494165 488.3023081 -123.19921875 481.35546875 C-124.34901938 479.38199277 -125.6057467 477.51962973 -126.8984375 475.63671875 C-138.4385145 458.48728787 -147.12767659 440.2304043 -154.94140625 421.1484375 C-156.36515922 417.67480749 -157.83051812 414.23017548 -159.375 410.80859375 C-167.1724813 393.39777933 -171.61793685 374.74714672 -176.30126953 356.31958008 C-176.90448586 353.95685655 -177.51808221 351.59672569 -178.14794922 349.2409668 C-179.97433258 342.30421142 -181.08389977 335.44679579 -181.8984375 328.32421875 C-182.13687526 326.28861978 -182.37885835 324.2534318 -182.625 322.21875 C-182.77702881 320.89580933 -182.77702881 320.89580933 -182.93212891 319.54614258 C-183.06932566 317.5223749 -183.06932566 317.5223749 -184.2734375 316.51171875 C-190.3469587 277.78682556 -192.27640303 228.2072838 -177.2734375 191.51171875 C-176.94465982 189.93567334 -176.6530006 188.35143933 -176.3984375 186.76171875 C-175.57760196 182.36438548 -174.13436696 178.74704203 -172.2109375 174.73046875 C-171.25244588 172.46203859 -170.7364825 170.36366769 -170.2734375 167.94921875 C-169.51670503 164.10581438 -168.18782491 161.10731826 -166.34375 157.671875 C-165.11537208 155.1927035 -164.19492032 152.68266815 -163.2734375 150.07421875 C-161.51215877 145.09310233 -159.52168893 140.29146589 -157.2734375 135.51171875 C-156.81324219 134.52945313 -156.81324219 134.52945313 -156.34375 133.52734375 C-154.09975759 128.89099579 -151.51033864 124.51743923 -148.82421875 120.125 C-147.31718829 117.5854449 -145.94857924 115.00597535 -144.5859375 112.38671875 C-140.42006225 104.69337511 -135.35545947 97.61824555 -130.2734375 90.51171875 C-129.79068359 89.83383301 -129.30792969 89.15594727 -128.81054688 88.45751953 C-122.02960449 78.99642556 -114.70079356 70.37702966 -106.65234375 61.97607422 C-104.85328656 60.06553154 -103.15391861 58.0788623 -101.4609375 56.07421875 C-98.63139825 52.79055592 -95.52449426 50.00762228 -92.21875 47.2109375 C-90.41706355 45.63717524 -88.79056418 43.9987422 -87.1484375 42.26171875 C-82.2515657 37.28694217 -76.61856981 33.15537419 -71.09326172 28.91259766 C-69.3663643 27.58325268 -67.64863938 26.24302102 -65.93359375 24.8984375 C-55.89973634 17.05428094 -45.73762016 9.65287705 -34.5234375 3.57421875 C-33.49621582 3.00755493 -33.49621582 3.00755493 -32.44824219 2.42944336 C-23.03140923 -2.52422669 -9.74620589 -5.71536765 0 0 Z " fill="#030303" transform="translate(225.2734375,115.48828125)"/>
<path d="M0 0 C0.70256927 0.06303314 1.40513855 0.12606628 2.1289978 0.19100952 C12.70068128 1.16480133 23.29829251 2.31456223 33.5625 5.125 C37.4915947 6.14931652 41.36065462 6.95524293 45.375 7.5625 C52.58479043 8.69492782 59.54409362 10.66691069 66.5625 12.625 C68.29159935 13.08358722 70.02076057 13.54194128 71.75 14 C80.4047415 16.36158343 88.97713498 19.02478879 97.5625 21.625 C97.5625 22.285 97.5625 22.945 97.5625 23.625 C99.2125 23.625 100.8625 23.625 102.5625 23.625 C102.5625 24.285 102.5625 24.945 102.5625 25.625 C103.26375 25.74488281 103.965 25.86476563 104.6875 25.98828125 C117.5461436 28.8360515 129.89258006 35.67562905 141.5625 41.625 C141.5625 42.285 141.5625 42.945 141.5625 43.625 C142.36494141 43.77582031 142.36494141 43.77582031 143.18359375 43.9296875 C156.67326303 47.87248082 169.42659855 58.33099296 180.5625 66.625 C182.03396484 67.70974609 182.03396484 67.70974609 183.53515625 68.81640625 C226.00375013 100.325363 261.42092098 142.80337375 281.95703125 191.8515625 C283.94954693 196.60962634 286.22034438 201.22672525 288.49609375 205.85546875 C289.58272073 208.67751463 289.78673535 210.63337228 289.5625 213.625 C290.2225 213.625 290.8825 213.625 291.5625 213.625 C300.07352468 233.55081072 306.80861056 254.14855664 311.07470703 275.39526367 C311.51139488 277.39139487 312.08521094 279.35636535 312.67578125 281.3125 C314.26018516 287.54334568 313.85005381 294.05648128 313.8125 300.4375 C313.82023438 301.74009766 313.82796875 303.04269531 313.8359375 304.38476562 C313.8205871 312.01775038 313.26761581 319.17822712 311.5625 326.625 C310.9025 326.625 310.2425 326.625 309.5625 326.625 C309.52125 327.305625 309.48 327.98625 309.4375 328.6875 C308.20416054 332.82799676 305.71584752 335.70697692 302.5625 338.625 C296.08809666 340.78313445 288.63294378 340.4192235 282.38671875 337.64453125 C274.72642757 333.36329785 269.09745862 326.00844737 264.5625 318.625 C264.5625 317.305 264.5625 315.985 264.5625 314.625 C263.9025 314.625 263.2425 314.625 262.5625 314.625 C262.5625 313.965 262.5625 313.305 262.5625 312.625 C261.9025 312.625 261.2425 312.625 260.5625 312.625 C259.26927968 309.72985806 257.97820259 306.83376516 256.6875 303.9375 C256.32269531 303.12087891 255.95789063 302.30425781 255.58203125 301.46289062 C254.56833726 299.18668686 253.56405789 296.90656384 252.5625 294.625 C252.14742187 293.69042969 251.73234375 292.75585938 251.3046875 291.79296875 C250.5625 289.625 250.5625 289.625 250.5625 285.625 C249.9025 285.625 249.2425 285.625 248.5625 285.625 C246.51537047 280.41148882 244.84750728 275.28457898 243.625 269.8125 C243.46935074 269.12024826 243.31370148 268.42799652 243.15333557 267.71476746 C242.80576152 266.1625315 242.45828697 264.61027327 242.11088562 263.05799866 C241.76767966 261.53531166 241.42071967 260.01346046 241.06819153 258.49290466 C237.67206228 243.83536192 235.91067989 229.11888283 234.28344727 214.17602539 C231.4997601 188.86995803 227.01004956 164.40609475 214.44921875 142.0078125 C212.80600845 139.06160107 211.28426346 136.09659698 209.8125 133.0625 C208.44456352 130.27561924 207.01011566 127.6823806 205.25 125.125 C203.5625 122.625 203.5625 122.625 203.5625 120.625 C202.9025 120.625 202.2425 120.625 201.5625 120.625 C200.34764615 118.90078573 199.21431296 117.11865116 198.125 115.3125 C195.79949782 111.38494397 195.79949782 111.38494397 192.83984375 107.95703125 C191.5625 106.625 191.5625 106.625 191.5625 103.625 C190.5725 103.295 189.5825 102.965 188.5625 102.625 C187.08984375 101.09375 187.08984375 101.09375 185.5 99.125 C174.78213618 86.54996979 161.07450095 77.08130043 147.25 68.25 C146.31897461 67.65485596 145.38794922 67.05971191 144.42871094 66.4465332 C139.26017542 63.18961614 134.07911409 60.25072722 128.5625 57.625 C128.5625 56.965 128.5625 56.305 128.5625 55.625 C127.73492188 55.52316406 126.90734375 55.42132813 126.0546875 55.31640625 C122.00973447 54.51555984 118.47859737 53.14579745 114.6875 51.5625 C113.99914062 51.28083984 113.31078125 50.99917969 112.6015625 50.70898438 C110.91960091 50.01984734 109.24072303 49.32319202 107.5625 48.625 C107.5625 47.965 107.5625 47.305 107.5625 46.625 C106.89089844 46.49867187 106.21929688 46.37234375 105.52734375 46.2421875 C102.72896344 45.65965247 99.97007234 44.97209791 97.20068359 44.26660156 C71.11118392 37.77337864 41.89122532 34.97080356 15.5625 41.625 C14.36367188 41.89183594 13.16484375 42.15867188 11.9296875 42.43359375 C-4.60006891 46.52062143 -17.7874836 56.48388221 -29.4375 68.625 C-30.23929687 69.40488281 -31.04109375 70.18476562 -31.8671875 70.98828125 C-47.79376666 87.32633738 -56.82051285 107.61586707 -61.4375 129.625 C-61.81053519 131.18797025 -62.18508478 132.75058163 -62.5625 134.3125 C-63.60834003 139.09217243 -64.26250784 143.92630694 -64.90345764 148.77464294 C-65.21912099 151.05052345 -65.5624237 153.3233351 -65.96702576 155.58509827 C-68.14049067 168.67465481 -67.67717208 181.90608299 -67.60735631 195.13323855 C-67.59092844 198.71153732 -67.58699641 202.28984964 -67.58189392 205.86817932 C-67.57058681 212.62971751 -67.54991025 219.39118754 -67.52499622 226.15268809 C-67.48042543 238.27111808 -67.44739129 250.38957236 -67.42475218 262.5080629 C-67.41639128 266.75171966 -67.40241697 270.99530886 -67.38377964 275.23893249 C-67.3705762 278.49969109 -67.36374426 281.76046541 -67.35571289 285.02124023 C-67.34897552 286.18450836 -67.34223816 287.34777649 -67.33529663 288.54629517 C-67.32123765 298.59351353 -68.4446272 306.39377114 -72.4375 315.625 C-73.14712891 317.45804687 -73.14712891 317.45804687 -73.87109375 319.328125 C-79.60307987 333.81312857 -88.36027089 344.77360833 -100.4375 354.625 C-101.23929688 355.30691406 -102.04109375 355.98882812 -102.8671875 356.69140625 C-105.55592823 358.71409115 -108.13376552 360.03076699 -111.1875 361.4375 C-118.28380594 364.83381318 -124.966264 368.85839112 -131.6875 372.9375 C-139.57994987 377.72561349 -147.49704424 382.40457894 -155.59594727 386.83374023 C-164.20761107 391.56031034 -172.66276009 396.55565246 -181.13671875 401.5234375 C-182.05114746 402.05807617 -182.96557617 402.59271484 -183.90771484 403.14355469 C-185.48377336 404.0664965 -187.05745809 404.99351913 -188.62744141 405.92675781 C-193.21729587 408.625 -193.21729587 408.625 -195.4375 408.625 C-195.4375 409.285 -195.4375 409.945 -195.4375 410.625 C-196.4171875 411.016875 -197.396875 411.40875 -198.40625 411.8125 C-202.81814832 413.70331357 -206.84293464 416.13456669 -210.9375 418.625 C-224.09044118 426.625 -224.09044118 426.625 -229.4375 426.625 C-229.4375 427.285 -229.4375 427.945 -229.4375 428.625 C-231.35277524 429.23356326 -233.26982588 429.83653874 -235.1875 430.4375 C-236.25484375 430.77394531 -237.3221875 431.11039062 -238.421875 431.45703125 C-239.75932195 431.85009839 -241.09802157 432.23891236 -242.4375 432.625 C-243.3147876 432.88812988 -244.1920752 433.15125977 -245.09594727 433.42236328 C-252.79724732 435.56928441 -259.90687469 436.02213215 -267.875 435.875 C-269.59106445 435.86726562 -269.59106445 435.86726562 -271.34179688 435.859375 C-276.18639432 435.81407193 -280.69866695 435.70389937 -285.4375 434.625 C-285.4375 433.965 -285.4375 433.305 -285.4375 432.625 C-286.241875 432.7075 -287.04625 432.79 -287.875 432.875 C-292.61939247 432.54206018 -296.22205517 430.72335476 -300.4375 428.625 C-300.4375 427.965 -300.4375 427.305 -300.4375 426.625 C-301.31148437 426.21894531 -301.31148437 426.21894531 -302.203125 425.8046875 C-316.59874702 418.20420175 -324.0228063 400.6065143 -328.6875 385.875 C-330.85749347 378.37043925 -332.77142376 371.47220827 -332.4375 363.625 C-333.0975 363.625 -333.7575 363.625 -334.4375 363.625 C-336.53339693 347.83091956 -336.53339693 333.41908044 -334.4375 317.625 C-333.7775 317.625 -333.1175 317.625 -332.4375 317.625 C-332.51355469 316.66464844 -332.58960938 315.70429688 -332.66796875 314.71484375 C-332.61990837 299.98248901 -320.20518294 284.64384404 -310.4375 274.625 C-301.69717027 265.99707805 -291.78467546 259.1648193 -281.4375 252.625 C-280.21726869 251.84142487 -278.99721611 251.05757133 -277.77734375 250.2734375 C-268.56810187 244.40164411 -259.14546647 238.90331118 -249.68579102 233.44628906 C-243.76583329 230.04580155 -243.76583329 230.04580155 -238.0390625 226.3359375 C-235.53296811 224.68778533 -233.21700534 223.7172521 -230.4375 222.625 C-228.11783116 221.30306824 -225.8365692 219.9581005 -223.5625 218.5625 C-222.22927927 217.75241882 -220.89594252 216.94252856 -219.5625 216.1328125 C-218.881875 215.71805664 -218.20125 215.30330078 -217.5 214.87597656 C-215.48534563 213.65402001 -213.46332465 212.44551936 -211.4375 211.2421875 C-176.21261045 190.31777512 -147.21465848 159.3014395 -134.4375 119.625 C-133.7775 119.625 -133.1175 119.625 -132.4375 119.625 C-131.97392032 117.35618649 -131.52099186 115.08625279 -131.08203125 112.8125 C-130.6421218 110.63694783 -130.15826889 108.46993668 -129.63671875 106.3125 C-127.69068072 97.60605499 -127.14648862 89.23659774 -127.125 80.3125 C-127.11702393 78.68538086 -127.11702393 78.68538086 -127.10888672 77.02539062 C-127.25107244 60.67153846 -130.61277181 46.39271816 -142.45703125 34.6171875 C-146.18033858 31.21424122 -149.73574885 28.56702765 -154.4375 26.625 C-155.324375 26.25375 -156.21125 25.8825 -157.125 25.5 C-161.84371812 24.25354616 -166.57901108 23.95350993 -171.4375 23.625 C-171.1075 22.635 -170.7775 21.645 -170.4375 20.625 C-167.99339154 19.76062018 -165.69766617 19.09090541 -163.1875 18.5 C-162.51847656 18.33113281 -161.84945312 18.16226563 -161.16015625 17.98828125 C-159.25755196 17.51356466 -157.34760808 17.06856066 -155.4375 16.625 C-154.61765625 16.42648438 -153.7978125 16.22796875 -152.953125 16.0234375 C-137.11150778 13.51436148 -121.21733316 16.40004312 -107.87890625 25.33984375 C-96.53261212 33.78480239 -90.8397748 44.6295662 -86.75 57.875 C-86.41258789 58.93460938 -86.41258789 58.93460938 -86.06835938 60.015625 C-85.14109842 62.99187902 -84.4375 65.4888555 -84.4375 68.625 C-80.15999277 65.00019142 -76.07460348 61.29344036 -72.1875 57.25 C-59.24199567 44.23833466 -38.06849643 29.90795175 -19.53515625 27.14453125 C-17.25468898 26.66605228 -17.25468898 26.66605228 -14.67797852 25.19677734 C-3.12477058 19.59295359 9.87725037 20.18404519 22.40527344 20.28881836 C25.45273936 20.31261902 28.49933828 20.30933183 31.546875 20.30273438 C33.50781766 20.30830654 35.46875669 20.31541351 37.4296875 20.32421875 C38.77835403 20.32285164 38.77835403 20.32285164 40.15426636 20.32145691 C45.61149618 20.38228703 50.3187513 21.09674576 55.5625 22.625 C55.5625 21.965 55.5625 21.305 55.5625 20.625 C54.97082031 20.57601562 54.37914062 20.52703125 53.76953125 20.4765625 C52.97933594 20.40179688 52.18914062 20.32703125 51.375 20.25 C50.59769531 20.18039063 49.82039063 20.11078125 49.01953125 20.0390625 C46.31326551 19.58299864 44.09823913 18.66411022 41.5625 17.625 C30.74846281 14.70921516 19.54288571 13.31486418 8.484375 11.66796875 C3.9881777 10.99833577 -0.49975736 10.2939426 -4.984375 9.55078125 C-31.04745899 5.26903112 -57.08316525 4.22988583 -83.4375 3.625 C-83.1075 2.635 -82.7775 1.645 -82.4375 0.625 C-54.90255529 -1.77461507 -27.55305479 -2.47316433 0 0 Z " fill="#030303" transform="translate(440.4375,44.375)"/>
<path d="M0 0 C0 0.66 0 1.32 0 2 C0.88945313 2.25394531 1.77890625 2.50789062 2.6953125 2.76953125 C6.06466746 4.02407831 8.13109756 5.39791583 10.875 7.6875 C12.16664063 8.76451172 12.16664063 8.76451172 13.484375 9.86328125 C14.31453125 10.56839844 15.1446875 11.27351563 16 12 C17.05960938 12.85658203 17.05960938 12.85658203 18.140625 13.73046875 C29.58674921 23.21633153 38.01662791 36.07931271 43 50 C43.26425781 50.65355469 43.52851562 51.30710937 43.80078125 51.98046875 C46.15633715 57.83915907 47.64622333 63.84144946 49 70 C49.26345215 71.17377197 49.5269043 72.34754395 49.79833984 73.55688477 C53.00755918 89.60397493 52.3088335 105.94725446 52.14770508 122.22662354 C52.0877641 128.55829183 52.05404972 134.89013652 52.02193832 141.22199631 C52.00833288 143.39350653 51.98670468 145.56480897 51.96365356 147.73623657 C51.83545511 162.84817201 52.87904034 177.71201464 54.9375 192.6875 C55.10701172 193.99138672 55.27652344 195.29527344 55.45117188 196.63867188 C56.46668218 204.17198219 58.14522173 210.7698247 60.8125 217.875 C62.25503385 221.78893376 63.52864544 225.72041833 64.70874023 229.72119141 C69.78244002 246.77029987 77.98966433 264.29571557 89.38671875 278.05078125 C91.02839768 280.034311 92.50831773 282.08969882 94 284.1875 C96.45655244 287.48910648 99.15124189 290.04298518 102.33984375 292.62890625 C104.71779355 294.59281302 106.82047904 296.82047904 109 299 C111.74587131 301.35360398 113.56270161 302.85423387 117 304 C117 304.66 117 305.32 117 306 C118.09441406 306.40605469 118.09441406 306.40605469 119.2109375 306.8203125 C121.90806807 307.96111563 124.16918369 309.28980753 126.625 310.875 C133.29552374 314.95309299 140.30840674 317.60529458 148 319 C148 319.66 148 320.32 148 321 C158.96425987 321.27372632 167.09268253 321.35298106 175.85546875 314.1875 C182.33067962 307.58254902 185.87452962 297.87237637 188 289 C188.66 289 189.32 289 190 289 C190.72718935 304.27097626 187.26486067 321.44115865 180 335 C179.34 335 178.68 335 178 335 C177.690625 335.99 177.690625 335.99 177.375 337 C175.50875748 341.07180186 173.02438473 344.68796998 170 348 C169.34 348 168.68 348 168 348 C168 348.66 168 349.32 168 350 C158.9049703 356.69081079 150.17230485 360.24136457 138.921875 358.71875 C126.87863919 356.39931199 113.82151144 351.82151144 105 343 C105.18103271 343.52859619 105.36206543 344.05719238 105.54858398 344.60180664 C107.54607068 350.50443437 109.34899225 356.44679644 111.0625 362.4375 C111.31837891 363.31470703 111.57425781 364.19191406 111.83789062 365.09570312 C115.99679692 379.60376443 117.17195116 393.42867614 117.125 408.5 C117.12886719 409.74136719 117.13273437 410.98273438 117.13671875 412.26171875 C117.12613914 422.30177174 116.57099775 432.030239 114.5625 441.875 C114.31628906 443.10992188 114.07007813 444.34484375 113.81640625 445.6171875 C113.10129137 448.58029511 112.13330203 451.18391618 111 454 C111 454.99 111 455.98 111 457 C117.32485521 450.88794366 123.23865803 444.73187507 128.71484375 437.8359375 C131.08384114 434.895951 133.56742718 432.08345081 136.0625 429.25 C141.24212582 423.24508526 145.78568296 416.81749611 150.3125 410.3125 C151.3171228 408.86955566 151.3171228 408.86955566 152.34204102 407.39746094 C156.06540097 401.98622111 159.54331221 396.51699113 162.76245117 390.78979492 C163.37503784 389.90384644 163.37503784 389.90384644 164 389 C164.66 389 165.32 389 166 389 C166.061875 388.319375 166.12375 387.63875 166.1875 386.9375 C167.28538855 382.96821063 169.49023975 380.21360445 172 377 C173.37702056 381.13106167 172.02016018 382.59041217 170.125 386.4375 C167.57558062 391.54704544 167.57558062 391.54704544 166 397 C165.34 397 164.68 397 164 397 C162.50859979 400.62197194 161.2125738 404.27566618 160 408 C159.34 408 158.68 408 158 408 C157.81050781 408.86238281 157.81050781 408.86238281 157.6171875 409.7421875 C150.01989517 437.53481389 124.22680717 466.69302594 106.44921875 488.93359375 C104.4350874 491.45527335 102.45921447 493.99830244 100.5 496.5625 C94.31522679 504.51647517 87.90343346 512.39009627 80.625 519.37109375 C78.10397049 521.89818343 75.85058869 524.64811929 73.578125 527.3984375 C72 529 72 529 69 530 C69 530.66 69 531.32 69 532 C67.12109375 533.7421875 67.12109375 533.7421875 64.4375 535.875 C63.43203125 536.67679688 62.4265625 537.47859375 61.390625 538.3046875 C60.84212891 538.7387793 60.29363281 539.17287109 59.72851562 539.62011719 C57.94456258 541.04425598 56.18198982 542.4918412 54.421875 543.9453125 C46.29186358 550.62073948 37.94016043 556.47121658 29 562 C27.16645512 563.2080123 25.33310941 564.41632698 23.5 565.625 C-5.44168591 584 -5.44168591 584 -17 584 C-17 584.66 -17 585.32 -17 586 C-70.81293401 604.40193413 -70.81293401 604.40193413 -90 604 C-90 604.66 -90 605.32 -90 606 C-107.38077946 608.46397164 -124.42490742 609.42732907 -141.97265625 609.28125 C-145.78916142 609.24967602 -149.60525107 609.24021379 -153.421875 609.234375 C-155.90104663 609.22521584 -158.38021415 609.21484357 -160.859375 609.203125 C-161.97423279 609.19887512 -163.08909058 609.19462524 -164.23773193 609.19024658 C-175.91490473 609.08600367 -187.49794019 608.24131283 -199.0625 606.625 C-200.01729248 606.49270996 -200.97208496 606.36041992 -201.95581055 606.22412109 C-207.81794754 605.38403924 -213.54347403 604.32270733 -219.2890625 602.875 C-223.47244004 601.88860361 -227.67484668 601.07465464 -231.89477539 600.26147461 C-242.67069779 598.17851845 -253.26368004 595.84830139 -263.77148438 592.67236328 C-265.33824105 592.19965865 -266.90750436 591.73522184 -268.47851562 591.27685547 C-271.03169933 590.53177239 -273.5788381 589.76870406 -276.125 589 C-276.89505371 588.77513916 -277.66510742 588.55027832 -278.45849609 588.31860352 C-283.17330538 586.85661124 -286.9843972 584.91229572 -291.09521484 582.19018555 C-293.90720766 580.43314056 -296.94767338 579.28211467 -300 578 C-313.12149063 571.04574926 -324.9126796 563.18460508 -331 549 C-331.67994902 543.17186558 -330.97514991 539.71497543 -327.6171875 534.88671875 C-320.4768203 526.55629035 -308.97761977 521.82749914 -298.19677734 520.70922852 C-295.24984406 520.59832242 -292.32370338 520.58383095 -289.375 520.625 C-288.32320557 520.63442627 -287.27141113 520.64385254 -286.18774414 520.65356445 C-271.96237013 520.92668989 -259.3320441 524.22058796 -246 529 C-244.52267044 529.50540222 -243.04376319 530.0062456 -241.5625 530.5 C-240.56089844 530.83451172 -240.56089844 530.83451172 -239.5390625 531.17578125 C-233.37812873 533.17571514 -227.18610336 535.07965135 -221 537 C-221 537.66 -221 538.32 -221 539 C-220.175 539.0825 -219.35 539.165 -218.5 539.25 C-215.11480526 539.97539887 -212.50726982 541.15685019 -209.4609375 542.76171875 C-202.41332895 546.30789639 -195.01891166 549.21988524 -187.6875 552.125 C-180.07647237 555.14465974 -172.79137984 558.55668453 -165.578125 562.4375 C-155.99764295 566.62111662 -145.74228013 568.90203242 -135.5625 571.125 C-133.89477539 571.50205078 -133.89477539 571.50205078 -132.19335938 571.88671875 C-118.46256529 574.92035862 -105.26742413 576.3538241 -91.25 576.25 C-90.50232361 576.24689819 -89.75464722 576.24379639 -88.98431396 576.24060059 C-77.89259893 576.18669261 -66.94671678 575.91787483 -56 574 C-55.16807129 573.8551416 -54.33614258 573.7102832 -53.47900391 573.56103516 C-41.50806742 571.42001625 -30.4561904 568.58261327 -19.26171875 563.76953125 C-17 563 -17 563 -13 563 C-13 562.34 -13 561.68 -13 561 C-12.34257813 560.75507812 -11.68515625 560.51015625 -11.0078125 560.2578125 C2.71672924 554.86469989 15.23968182 547.57639572 27.125 538.875 C27.89400635 538.31369385 28.6630127 537.7523877 29.45532227 537.17407227 C34.76170873 533.18980019 39.40158383 528.77394352 44 524 C44.825 523.195625 45.65 522.39125 46.5 521.5625 C59.08760188 508.66020807 68.50659375 493.84521333 75 477 C75.66 477 76.32 477 77 477 C77.103125 475.948125 77.20625 474.89625 77.3125 473.8125 C77.76436443 470.12657731 78.54874478 466.60439619 79.4375 463 C82.48159759 450.09938148 83.4067467 437.21760115 83.375 424 C83.37617828 422.94147827 83.37617828 422.94147827 83.37738037 421.86157227 C83.35990188 408.62700576 81.83959208 395.93991328 79 383 C78.80889648 382.12601563 78.61779297 381.25203125 78.42089844 380.3515625 C77.95314671 378.23306792 77.47746397 376.1163268 77 374 C76.34 374 75.68 374 75 374 C74.67128906 373.24976563 74.34257813 372.49953125 74.00390625 371.7265625 C68.44840233 359.77244295 61.02028684 352.02993461 50 345 C48.68016432 344.136677 47.36122209 343.27198723 46.04296875 342.40625 C38.45825656 337.44290264 30.81094806 332.59165262 23.0703125 327.875 C21.07818701 326.65843481 19.09328772 325.42992616 17.1171875 324.1875 C9.0335101 319.12201025 0.75437835 314.44878326 -7.56347656 309.78076172 C-13.64401816 306.35934042 -19.61002647 302.82948744 -25.51953125 299.12109375 C-33.52931807 294.16972414 -41.80675194 289.63869611 -50 285 C-50 284.34 -50 283.68 -50 283 C-50.72364746 282.885354 -51.44729492 282.77070801 -52.19287109 282.65258789 C-55.11243512 281.97386162 -57.28323256 280.98185066 -59.9140625 279.55859375 C-60.83493652 279.06133789 -61.75581055 278.56408203 -62.70458984 278.05175781 C-63.6683252 277.51905273 -64.63206055 276.98634766 -65.625 276.4375 C-66.61322754 275.89319336 -67.60145508 275.34888672 -68.61962891 274.78808594 C-84.25296589 266.06190246 -95.28400127 256.0393237 -105 241 C-105.50789062 240.2265625 -106.01578125 239.453125 -106.5390625 238.65625 C-110.43013682 232.25865542 -112.26109545 225.23657656 -114 218 C-114.17052887 217.36657684 -114.34105774 216.73315369 -114.51675415 216.08053589 C-116.57445127 207.49134073 -116.26902736 198.80475423 -116.23046875 190.03515625 C-116.22977909 188.23496005 -116.22988637 186.4347634 -116.23072815 184.63456726 C-116.22999042 179.78500431 -116.21592074 174.93557125 -116.19804382 170.08604431 C-116.18748138 167.05716085 -116.17986459 164.02828408 -116.17321777 160.99938965 C-116.14746236 149.4839645 -116.10414845 137.96871121 -116.04592323 126.45340538 C-116.01469075 120.24677265 -115.98855141 114.04015395 -115.96764278 107.83347797 C-115.93205844 97.27448055 -115.87347397 86.71591961 -115.78945923 76.15719604 C-115.761486 72.57623545 -115.74196738 68.99538557 -115.72982788 65.41433716 C-115.71484785 61.199158 -115.68054423 56.98455306 -115.63187981 52.76963234 C-115.61723782 51.24214359 -115.60896029 49.7145761 -115.60806465 48.18701744 C-115.58709469 29.7887187 -111.28496743 12.71315249 -98.21484375 -0.87890625 C-73.75881865 -24.29975569 -27.17641863 -13.75363099 0 0 Z " fill="#020202" transform="translate(572,147)"/>
<path d="M0 0 C4.33333333 0 8.66666667 0 13 0 C14.19625 -0.020625 15.3925 -0.04125 16.625 -0.0625 C20 0 20 0 21 1 C21.04063832 2.66617115 21.042721 4.33388095 21 6 C20.01 6 19.02 6 18 6 C18 5.01 18 4.02 18 3 C17.01 3 16.02 3 15 3 C16.20839273 7.46242021 16.20839273 7.46242021 19.125 10.9375 C21 13 21 13 21.375 16.625 C21 20 21 20 19 22 C16 22.25 16 22.25 13 22 C12.34 21.34 11.68 20.68 11 20 C10.67 20.66 10.34 21.32 10 22 C6.7 22 3.4 22 0 22 C0 14.74 0 7.48 0 0 Z " fill="#F5F5F5" transform="translate(727,4)"/>
<path d="M0 0 C1.65 0 3.3 0 5 0 C5.99 2.97 6.98 5.94 8 9 C8.66 6.03 9.32 3.06 10 0 C11.65 0 13.3 0 15 0 C15 7.26 15 14.52 15 22 C13.68 22 12.36 22 11 22 C10.67 20.35 10.34 18.7 10 17 C9.67 18.65 9.34 20.3 9 22 C8.01 22 7.02 22 6 22 C5.34 19.03 4.68 16.06 4 13 C3.67 15.97 3.34 18.94 3 22 C2.01 22 1.02 22 0 22 C0 14.74 0 7.48 0 0 Z " fill="#C2C2C2" transform="translate(781,4)"/>
<path d="M0 0 C0.99 0 1.98 0 3 0 C3.66 3.3 4.32 6.6 5 10 C5.33 6.7 5.66 3.4 6 0 C7.32 0 8.64 0 10 0 C10.66 3.63 11.32 7.26 12 11 C12.33 7.37 12.66 3.74 13 0 C13.99 0 14.98 0 16 0 C16.26442904 7.59498961 15.60881575 14.57359158 14 22 C12.35 22 10.7 22 9 22 C8.67 19.36 8.34 16.72 8 14 C7.67 16.64 7.34 19.28 7 22 C5.35 22 3.7 22 2 22 C-0.29612756 7.40318907 -0.29612756 7.40318907 0 0 Z " fill="#BDBDBD" transform="translate(524,4)"/>
<path d="M0 0 C0.99 0 1.98 0 3 0 C4.62343265 4.87029795 4.61555671 9.89239628 5 15 C5.33 10.05 5.66 5.1 6 0 C7.32 0 8.64 0 10 0 C10.66 2.31 11.32 4.62 12 7 C12.33 4.69 12.66 2.38 13 0 C13.99 0 14.98 0 16 0 C16.30071865 7.55137932 15.42625566 14.58856436 14 22 C12.35 22 10.7 22 9 22 C8.67 19.36 8.34 16.72 8 14 C7.67 16.64 7.34 19.28 7 22 C5.35 22 3.7 22 2 22 C-0.29612756 7.40318907 -0.29612756 7.40318907 0 0 Z " fill="#BEBEBE" transform="translate(560,4)"/>
<path d="M0 0 C2.97 0 5.94 0 9 0 C11.61042212 2.61042212 11.28846788 4.51121185 11.32226562 8.07226562 C11.31904297 8.85279297 11.31582031 9.63332031 11.3125 10.4375 C11.32861328 11.21416016 11.34472656 11.99082031 11.36132812 12.79101562 C11.36613758 18.37479539 11.36613758 18.37479539 9.97729492 20.74633789 C8 22 8 22 0 22 C0 14.74 0 7.48 0 0 Z " fill="#C8C8C8" transform="translate(683,4)"/>
<path d="M0 0 C2.9375 0.8125 2.9375 0.8125 4.9375 2.8125 C5.38043542 5.79217576 5.26164428 8.80361866 5.25 11.8125 C5.26611328 12.64523437 5.28222656 13.47796875 5.29882812 14.3359375 C5.29979492 15.53089844 5.29979492 15.53089844 5.30078125 16.75 C5.30525269 17.84634766 5.30525269 17.84634766 5.30981445 18.96484375 C4.9375 20.8125 4.9375 20.8125 1.9375 22.8125 C-0.5625 23.125 -0.5625 23.125 -3.0625 22.8125 C-4.69384766 21.53710937 -4.69384766 21.53710937 -6.0625 19.8125 C-6.3606028 16.88992357 -6.48132117 14.22904217 -6.4375 11.3125 C-6.44910156 10.54035156 -6.46070313 9.76820312 -6.47265625 8.97265625 C-6.44323425 3.31382566 -6.44323425 3.31382566 -4.72900391 1.05664062 C-3.0625 -0.1875 -3.0625 -0.1875 0 0 Z " fill="#C0C0C0" transform="translate(774.0625,3.1875)"/>
<path d="M0 0 C0.99 0 1.98 0 3 0 C4.62343265 4.87029795 4.61555671 9.89239628 5 15 C5.33 10.05 5.66 5.1 6 0 C7.32 0 8.64 0 10 0 C10.66 3.63 11.32 7.26 12 11 C12.33 7.37 12.66 3.74 13 0 C13.99 0 14.98 0 16 0 C16.26442904 7.59498961 15.60881575 14.57359158 14 22 C12.35 22 10.7 22 9 22 C8.67 19.36 8.34 16.72 8 14 C7.67 16.64 7.34 19.28 7 22 C5.35 22 3.7 22 2 22 C1.66198848 19.45887768 1.32946621 16.91723254 1 14.375 C0.90460937 13.66214844 0.80921875 12.94929688 0.7109375 12.21484375 C0.18393899 8.11178391 -0.10466984 4.14754258 0 0 Z " fill="#BDBDBD" transform="translate(542,4)"/>
<path d="M0 0 C3.5 0.25 3.5 0.25 5.5 2.25 C5.72601089 4.92103778 5.82431568 7.45465737 5.8125 10.125 C5.82861328 10.84558594 5.84472656 11.56617188 5.86132812 12.30859375 C5.86429322 15.52868389 5.70238143 17.87142767 4.171875 20.734375 C2.5 22.25 2.5 22.25 -0.5625 22.625 C-3.5 22.25 -3.5 22.25 -5.5 20.25 C-5.75878906 18.40234375 -5.75878906 18.40234375 -5.765625 16.1875 C-5.76820313 15.39085937 -5.77078125 14.59421875 -5.7734375 13.7734375 C-5.76570312 12.94070312 -5.75796875 12.10796875 -5.75 11.25 C-5.75773438 10.41726563 -5.76546875 9.58453125 -5.7734375 8.7265625 C-5.77085937 7.92992187 -5.76828125 7.13328125 -5.765625 6.3125 C-5.76336914 5.58160156 -5.76111328 4.85070312 -5.75878906 4.09765625 C-5.23417658 0.35212108 -3.50303342 0.25021667 0 0 Z " fill="#CACACA" transform="translate(600.5,3.75)"/>
<path d="M0 0 C6.75 -0.125 6.75 -0.125 9 1 C9.05791844 4.12492251 9.09356746 7.24970766 9.125 10.375 C9.14175781 11.26445312 9.15851562 12.15390625 9.17578125 13.0703125 C9.18222656 13.92109375 9.18867187 14.771875 9.1953125 15.6484375 C9.20578613 16.43395996 9.21625977 17.21948242 9.22705078 18.02880859 C9 20 9 20 7 22 C4 22.25 4 22.25 1 22 C-1 20 -1 20 -1.24291992 18.15234375 C-1.23881104 17.42144531 -1.23470215 16.69054687 -1.23046875 15.9375 C-1.22853516 15.14085937 -1.22660156 14.34421875 -1.22460938 13.5234375 C-1.21236328 12.69070312 -1.20011719 11.85796875 -1.1875 11 C-1.18685547 10.16726563 -1.18621094 9.33453125 -1.18554688 8.4765625 C-1.14043257 2.28086515 -1.14043257 2.28086515 0 0 Z " fill="#BBBBBB" transform="translate(609,4)"/>
<path d="M0 0 C1.65 0 3.3 0 5 0 C5.66 2.64 6.32 5.28 7 8 C7.33 5.36 7.66 2.72 8 0 C8.99 0 9.98 0 11 0 C11 7.26 11 14.52 11 22 C9.68 22 8.36 22 7 22 C6.01 18.04 5.02 14.08 4 10 C3.67 13.96 3.34 17.92 3 22 C2.01 22 1.02 22 0 22 C0 14.74 0 7.48 0 0 Z " fill="#BCBCBC" transform="translate(713,4)"/>
<path d="M0 0 C1.98 0 3.96 0 6 0 C6.50688605 2.54046458 7.00566874 5.08208876 7.5 7.625 C7.64308594 8.33785156 7.78617188 9.05070313 7.93359375 9.78515625 C8.73049426 13.92144935 9.16034056 17.76433679 9 22 C8.01 22 7.02 22 6 22 C6 20.68 6 19.36 6 18 C4.35 18 2.7 18 1 18 C1 19.32 1 20.64 1 22 C-0.32 22 -1.64 22 -3 22 C-2.01 14.74 -1.02 7.48 0 0 Z " fill="#BDBDBD" transform="translate(672,4)"/>
<path d="M0 0 C0.99 0 1.98 0 3 0 C3 2.97 3 5.94 3 9 C4.32 9 5.64 9 7 9 C7 6.03 7 3.06 7 0 C8.32 0 9.64 0 11 0 C11 7.26 11 14.52 11 22 C9.68 22 8.36 22 7 22 C7 18.7 7 15.4 7 12 C5.68 12 4.36 12 3 12 C3 15.3 3 18.6 3 22 C2.01 22 1.02 22 0 22 C0 14.74 0 7.48 0 0 Z " fill="#C0C0C0" transform="translate(645,4)"/>
<path d="M0 0 C3.5 0.125 3.5 0.125 4.5 1.125 C4.54063832 2.79117115 4.542721 4.45888095 4.5 6.125 C3.51 6.125 2.52 6.125 1.5 6.125 C1.5 5.135 1.5 4.145 1.5 3.125 C0.51 3.125 -0.48 3.125 -1.5 3.125 C-0.29160727 7.58742021 -0.29160727 7.58742021 2.625 11.0625 C4.5 13.125 4.5 13.125 4.875 16.75 C4.5 20.125 4.5 20.125 2.5 22.125 C-0.5 22.375 -0.5 22.375 -3.5 22.125 C-5.5 20.125 -5.5 20.125 -5.625 17.5 C-5.58375 16.71625 -5.5425 15.9325 -5.5 15.125 C-4.51 15.125 -3.52 15.125 -2.5 15.125 C-2.17 16.115 -1.84 17.105 -1.5 18.125 C-0.84 18.125 -0.18 18.125 0.5 18.125 C0.11714409 14.80691547 -0.75979038 13.84665316 -3.125 11.3125 C-5.5 8.125 -5.5 8.125 -5.375 4.3125 C-4.23267327 0.1511669 -4.23267327 0.1511669 0 0 Z " fill="#BDBDBD" transform="translate(743.5,3.875)"/>
<path d="M0 0 C3.3 0 6.6 0 10 0 C10 0.99 10 1.98 10 3 C8.02 3 6.04 3 4 3 C4 4.98 4 6.96 4 9 C5.32 9 6.64 9 8 9 C8 9.99 8 10.98 8 12 C6.68 12 5.36 12 4 12 C4 14.31 4 16.62 4 19 C5.98 19 7.96 19 10 19 C10 19.99 10 20.98 10 22 C6.7 22 3.4 22 0 22 C0 14.74 0 7.48 0 0 Z " fill="#BFBFBF" transform="translate(658,4)"/>
<path d="M0 0 C3.4375 0.1875 3.4375 0.1875 4.4375 1.1875 C4.47830783 3.18708364 4.48004356 5.18795254 4.4375 7.1875 C3.4475 7.1875 2.4575 7.1875 1.4375 7.1875 C1.4375 5.8675 1.4375 4.5475 1.4375 3.1875 C0.1175 3.1875 -1.2025 3.1875 -2.5625 3.1875 C-2.2325 8.1375 -1.9025 13.0875 -1.5625 18.1875 C-0.5725 18.5175 0.4175 18.8475 1.4375 19.1875 C1.4375 17.5375 1.4375 15.8875 1.4375 14.1875 C2.4275 14.1875 3.4175 14.1875 4.4375 14.1875 C4.5625 17.0625 4.5625 17.0625 4.4375 20.1875 C2.4375 22.1875 2.4375 22.1875 -0.5625 22.4375 C-3.5625 22.1875 -3.5625 22.1875 -5.5625 20.1875 C-5.82128906 18.33984375 -5.82128906 18.33984375 -5.828125 16.125 C-5.83070313 15.32835937 -5.83328125 14.53171875 -5.8359375 13.7109375 C-5.82820312 12.87820312 -5.82046875 12.04546875 -5.8125 11.1875 C-5.82023438 10.35476563 -5.82796875 9.52203125 -5.8359375 8.6640625 C-5.83335937 7.86742187 -5.83078125 7.07078125 -5.828125 6.25 C-5.82586914 5.51910156 -5.82361328 4.78820312 -5.82128906 4.03515625 C-5.28986702 0.24100337 -3.54636656 0.18665087 0 0 Z " fill="#BCBCBC" transform="translate(761.5625,3.8125)"/>
<path d="M0 0 C3.3 0 6.6 0 10 0 C10 0.99 10 1.98 10 3 C8.02 3 6.04 3 4 3 C4 4.98 4 6.96 4 9 C5.32 9 6.64 9 8 9 C8 10.32 8 11.64 8 13 C6.68 13 5.36 13 4 13 C4 15.97 4 18.94 4 22 C2.68 22 1.36 22 0 22 C0 14.74 0 7.48 0 0 Z " fill="#C4C4C4" transform="translate(584,4)"/>
<path d="M0 0 C2.97 0 5.94 0 9 0 C9 0.99 9 1.98 9 3 C7.02 3 5.04 3 3 3 C3 4.98 3 6.96 3 9 C4.65 9 6.3 9 8 9 C8 9.99 8 10.98 8 12 C6.35 12 4.7 12 3 12 C3 14.31 3 16.62 3 19 C4.98 19 6.96 19 9 19 C9 19.99 9 20.98 9 22 C6.03 22 3.06 22 0 22 C0 14.74 0 7.48 0 0 Z " fill="#BABABA" transform="translate(727,4)"/>
<path d="M0 0 C0.99 0 1.98 0 3 0 C3.33 2.64 3.66 5.28 4 8 C4.66 8 5.32 8 6 8 C6.33 5.36 6.66 2.72 7 0 C8.32 0 9.64 0 11 0 C10.79503906 0.66644531 10.59007812 1.33289063 10.37890625 2.01953125 C8.42784615 8.69421053 7.38921872 15.06116975 7 22 C5.68 22 4.36 22 3 22 C2.92652344 20.89591797 2.92652344 20.89591797 2.8515625 19.76953125 C2.77679687 18.79371094 2.70203125 17.81789063 2.625 16.8125 C2.55539062 15.84957031 2.48578125 14.88664062 2.4140625 13.89453125 C1.99655603 10.97592473 1.12037842 8.71059295 0 6 C-0.125 2.6875 -0.125 2.6875 0 0 Z " fill="#BEBEBE" transform="translate(632,4)"/>
<path d="M0 0 C1.32 0 2.64 0 4 0 C4 1.32 4 2.64 4 4 C4.99 4 5.98 4 7 4 C7.33 2.68 7.66 1.36 8 0 C9.06723961 3.46222615 9.10173486 6.64039266 9.0625 10.25 C9.05347656 11.32765625 9.04445313 12.4053125 9.03515625 13.515625 C9.02355469 14.33546875 9.01195312 15.1553125 9 16 C8.34 16.33 7.68 16.66 7 17 C7 15.02 7 13.04 7 11 C6.01 11 5.02 11 4 11 C4 12.65 4 14.3 4 16 C2.68 15.67 1.36 15.34 0 15 C0 10.05 0 5.1 0 0 Z " fill="#F2F2F2" transform="translate(759,7)"/>
<path d="M0 0 C0.66 0.33 1.32 0.66 2 1 C2 6.61 2 12.22 2 18 C2.99 18 3.98 18 5 18 C5.04898438 17.00097656 5.09796875 16.00195312 5.1484375 14.97265625 C5.26058594 13.03712891 5.26058594 13.03712891 5.375 11.0625 C5.44460938 9.77472656 5.51421875 8.48695312 5.5859375 7.16015625 C5.72257813 6.11730469 5.85921875 5.07445312 6 4 C6.66 3.67 7.32 3.34 8 3 C8.05380578 5.79192205 8.09357669 8.5828141 8.125 11.375 C8.15013672 12.56609375 8.15013672 12.56609375 8.17578125 13.78125 C8.19335473 15.85492015 8.10335168 17.92883241 8 20 C6 22 6 22 3 22.25 C0 22 0 22 -2 20 C-2.25878906 18.15234375 -2.25878906 18.15234375 -2.265625 15.9375 C-2.26820313 15.14085937 -2.27078125 14.34421875 -2.2734375 13.5234375 C-2.26570312 12.69070312 -2.25796875 11.85796875 -2.25 11 C-2.25773438 10.16726563 -2.26546875 9.33453125 -2.2734375 8.4765625 C-2.27085937 7.67992187 -2.26828125 6.88328125 -2.265625 6.0625 C-2.26336914 5.33160156 -2.26111328 4.60070312 -2.25878906 3.84765625 C-2 2 -2 2 0 0 Z " fill="#BBBBBB" transform="translate(597,4)"/>
<path d="M0 0 C3.63 0 7.26 0 11 0 C11 0.99 11 1.98 11 3 C10.01 3 9.02 3 8 3 C8 9.27 8 15.54 8 22 C6.68 22 5.36 22 4 22 C4 15.73 4 9.46 4 3 C2.68 3 1.36 3 0 3 C0 2.01 0 1.02 0 0 Z " fill="#C0C0C0" transform="translate(619,4)"/>
<path d="M0 0 C0.33 0 0.66 0 1 0 C1 5.28 1 10.56 1 16 C2.32 15.67 3.64 15.34 5 15 C5.04898438 14.07316406 5.09796875 13.14632813 5.1484375 12.19140625 C5.22320313 10.99386719 5.29796875 9.79632813 5.375 8.5625 C5.44460938 7.36753906 5.51421875 6.17257812 5.5859375 4.94140625 C5.72257813 3.97074219 5.85921875 3.00007812 6 2 C6.66 1.67 7.32 1.34 8 1 C8.05382106 3.62527189 8.09358313 6.24944713 8.125 8.875 C8.14175781 9.62136719 8.15851562 10.36773437 8.17578125 11.13671875 C8.1933959 13.09194461 8.10320189 15.04742021 8 17 C6 19 6 19 4.0546875 19.1953125 C2.03645833 19.13020833 0.01822917 19.06510417 -2 19 C-1.85982174 16.02046641 -1.71313658 13.04150696 -1.5625 10.0625 C-1.52318359 9.21236328 -1.48386719 8.36222656 -1.44335938 7.48632812 C-1.40146484 6.67744141 -1.35957031 5.86855469 -1.31640625 5.03515625 C-1.27974854 4.2862915 -1.24309082 3.53742676 -1.20532227 2.76586914 C-1 1 -1 1 0 0 Z " fill="#B9B9B9" transform="translate(685,7)"/>
<path d="M0 0 C0.99 0 1.98 0 3 0 C3 6.27 3 12.54 3 19 C4.98 19 6.96 19 9 19 C9 19.99 9 20.98 9 22 C6.03 22 3.06 22 0 22 C0 14.74 0 7.48 0 0 Z " fill="#BBBBBB" transform="translate(696,4)"/>
<path d="M0 0 C1.37702056 4.13106167 0.02016018 5.59041217 -1.875 9.4375 C-4.42441938 14.54704544 -4.42441938 14.54704544 -6 20 C-6.66 20 -7.32 20 -8 20 C-8.66 21.32 -9.32 22.64 -10 24 C-10.33 23.34 -10.66 22.68 -11 22 C-11.66 22 -12.32 22 -13 22 C-11.66749209 18.4124787 -10.169283 15.1635377 -8 12 C-7.34 12 -6.68 12 -6 12 C-5.938125 11.319375 -5.87625 10.63875 -5.8125 9.9375 C-4.71461145 5.96821063 -2.50976025 3.21360445 0 0 Z " fill="#2B2B2B" transform="translate(744,524)"/>
<path d="M0 0 C0.66 0 1.32 0 2 0 C2.33 4.29 2.66 8.58 3 13 C1.68 13 0.36 13 -1 13 C-1 14.32 -1 15.64 -1 17 C-2.32 17 -3.64 17 -5 17 C-4.34 11.72 -3.68 6.44 -3 1 C-2.67 1.99 -2.34 2.98 -2 4 C-1.34 4 -0.68 4 0 4 C0 2.68 0 1.36 0 0 Z " fill="#C1C1C1" transform="translate(674,9)"/>
<path d="M0 0 C2.31 0 4.62 0 7 0 C7 0.99 7 1.98 7 3 C5.35 3 3.7 3 2 3 C2 8.94 2 14.88 2 21 C1.01 20.67 0.02 20.34 -1 20 C-1.02689449 17.04160645 -1.04678741 14.08345573 -1.0625 11.125 C-1.07087891 10.28324219 -1.07925781 9.44148437 -1.08789062 8.57421875 C-1.09111328 7.76855469 -1.09433594 6.96289062 -1.09765625 6.1328125 C-1.10289307 5.38918457 -1.10812988 4.64555664 -1.11352539 3.87939453 C-1 2 -1 2 0 0 Z " fill="#BABABA" transform="translate(609,4)"/>
<path d="M0 0 C2.7138696 2.46640429 4.50789287 5.20535978 6.4375 8.3125 C8.38736212 11.43558425 10.34023587 14.53644747 12.4375 17.5625 C14 20 14 20 14 22 C12 22 12 22 9.5625 19.8125 C7.23192973 17.25455702 5.72708252 14.97058194 4 12 C2.04478151 9.29897652 0.02884306 6.64603156 -2 4 C-1.34 3.34 -0.68 2.68 0 2 C0 1.34 0 0.68 0 0 Z " fill="#2E2E2E" transform="translate(117,611)"/>
<path d="M0 0 C0.99 0 1.98 0 3 0 C3 2.97 3 5.94 3 9 C4.32 9.33 5.64 9.66 7 10 C6.01 10.33 5.02 10.66 4 11 C3.67 14.63 3.34 18.26 3 22 C2.01 22 1.02 22 0 22 C0 14.74 0 7.48 0 0 Z " fill="#BABABA" transform="translate(645,4)"/>
<path d="M0 0 C0.99 0 1.98 0 3 0 C3 7.26 3 14.52 3 22 C2.01 22 1.02 22 0 22 C0 14.74 0 7.48 0 0 Z " fill="#B9B9B9" transform="translate(707,4)"/>
<path d="M0 0 C1.32 0 2.64 0 4 0 C4 4.95 4 9.9 4 15 C2.68 15 1.36 15 0 15 C0 10.05 0 5.1 0 0 Z " fill="#F1F1F1" transform="translate(611,7)"/>
<path d="M0 0 C0.99 0 1.98 0 3 0 C3.28307925 7.24997422 2.50974035 13.90961228 1 21 C-0.32 21 -1.64 21 -3 21 C-3 19.68 -3 18.36 -3 17 C-2.34 16.67 -1.68 16.34 -1 16 C-0.68758545 13.28553021 -0.48663408 10.66090639 -0.375 7.9375 C-0.33632813 7.17888672 -0.29765625 6.42027344 -0.2578125 5.63867188 C-0.16326438 3.75952805 -0.08053244 1.87979664 0 0 Z " fill="#B9B9B9" transform="translate(573,4)"/>
<path d="M0 0 C1.65 0 3.3 0 5 0 C4.67 6.93 4.34 13.86 4 21 C3.34 21 2.68 21 2 21 C2 16.05 2 11.1 2 6 C1.34 6 0.68 6 0 6 C0 4.02 0 2.04 0 0 Z " fill="#B8B8B8" transform="translate(791,4)"/>
<path d="M0 0 C3.19388255 0.77361552 6.38012928 0.78309461 9.64941406 0.86352539 C10.35402771 0.88430649 11.05864136 0.90508759 11.78460693 0.92649841 C14.02590587 0.99165751 16.2673177 1.05072162 18.50878906 1.10961914 C20.03223803 1.1528364 21.55567577 1.19645171 23.07910156 1.24047852 C26.80554497 1.34730405 30.532114 1.44866553 34.25878906 1.54711914 C34.25878906 1.87711914 34.25878906 2.20711914 34.25878906 2.54711914 C20.39878906 2.54711914 6.53878906 2.54711914 -7.74121094 2.54711914 C-7.74121094 1.88711914 -7.74121094 1.22711914 -7.74121094 0.54711914 C-2.23034734 -0.58010296 -2.23034734 -0.58010296 0 0 Z " fill="#7D7D7D" transform="translate(355.7412109375,46.452880859375)"/>
<path d="M0 0 C0.99 0 1.98 0 3 0 C3 5.28 3 10.56 3 16 C2.01 16 1.02 16 0 16 C0 10.72 0 5.44 0 0 Z " fill="#F8F8F8" transform="translate(772,7)"/>
<path d="M0 0 C0.99 0 1.98 0 3 0 C3 5.28 3 10.56 3 16 C2.01 16 1.02 16 0 16 C0 10.72 0 5.44 0 0 Z " fill="#F8F8F8" transform="translate(599,7)"/>
<path d="M0 0 C0 3 0 3 -1.65234375 4.99291992 C-2.78349609 6.10050659 -2.78349609 6.10050659 -3.9375 7.23046875 C-4.74960938 8.03291016 -5.56171875 8.83535156 -6.3984375 9.66210938 C-7.25695312 10.49548828 -8.11546875 11.32886719 -9 12.1875 C-10.28777344 13.4549707 -10.28777344 13.4549707 -11.6015625 14.74804688 C-13.7278365 16.83888298 -15.86078464 18.92241983 -18 21 C-18.66 20.67 -19.32 20.34 -20 20 C-15.02940485 13.55663592 -9.15919721 8.29608745 -3.109375 2.890625 C-1.52811291 1.4733801 -1.52811291 1.4733801 0 0 Z " fill="#242424" transform="translate(137,159)"/>
<path d="M0 0 C0.99 0 1.98 0 3 0 C3 4.95 3 9.9 3 15 C2.01 15 1.02 15 0 15 C0 10.05 0 5.1 0 0 Z " fill="#F9F9F9" transform="translate(687,7)"/>
<path d="M0 0 C0.66 0 1.32 0 2 0 C2.11269443 6.1105424 1.89604368 11.95170514 1 18 C0.67 18 0.34 18 0 18 C-0.33 15.69 -0.66 13.38 -1 11 C-1.99 11.99 -2.98 12.98 -4 14 C-3.79503906 13.32453125 -3.59007812 12.6490625 -3.37890625 11.953125 C-3.10949219 11.06109375 -2.84007812 10.1690625 -2.5625 9.25 C-2.16224609 7.92742187 -2.16224609 7.92742187 -1.75390625 6.578125 C-1.11531506 4.39434165 -0.53224167 2.21164502 0 0 Z " fill="#484848" transform="translate(760,436)"/>
<path d="M0 0 C2.97 0 5.94 0 9 0 C9 0.99 9 1.98 9 3 C6.69 3 4.38 3 2 3 C2 5.31 2 7.62 2 10 C1.01 10.495 1.01 10.495 0 11 C0 7.37 0 3.74 0 0 Z " fill="#BBBBBB" transform="translate(585,4)"/>
<path d="M0 0 C0.66 0.33 1.32 0.66 2 1 C-2.95 5.95 -7.9 10.9 -13 16 C-13.66 15.67 -14.32 15.34 -15 15 C-10.28109462 9.59947495 -5.69641143 4.38185495 0 0 Z " fill="#363636" transform="translate(138,312)"/>
<path d="M0 0 C2.00720923 0.28674418 4.0085944 0.61866701 6 1 C5.01 2.485 5.01 2.485 4 4 C3.01 4 2.02 4 1 4 C1 8.95 1 13.9 1 19 C0.67 19 0.34 19 0 19 C-0.16789126 16.56257869 -0.33436133 14.12507454 -0.5 11.6875 C-0.54769531 10.99720703 -0.59539063 10.30691406 -0.64453125 9.59570312 C-0.83879489 6.72337641 -1 3.87986212 -1 1 C-0.67 0.67 -0.34 0.34 0 0 Z " fill="#C6C6C6" transform="translate(771,3)"/>
<path d="M0 0 C3.42054006 1.14018002 4.2426201 1.92458518 6 5 C5.6875 7.25 5.6875 7.25 5 9 C4.01 9 3.02 9 2 9 C0.50178941 5.62902617 0 3.79557881 0 0 Z " fill="#DBDBDB" transform="translate(81,522)"/>
<path d="M0 0 C0.66 0.33 1.32 0.66 2 1 C-2.29 5.29 -6.58 9.58 -11 14 C-11.66 13.67 -12.32 13.34 -13 13 C-4.738041 3.40546697 -4.738041 3.40546697 0 0 Z " fill="#2D2D2D" transform="translate(171,604)"/>
<path d="M0 0 C0.33 0 0.66 0 1 0 C1.33 1.98 1.66 3.96 2 6 C2.33 6 2.66 6 3 6 C3 7.65 3 9.3 3 11 C2.01 11.33 1.02 11.66 0 12 C0 13.65 0 15.3 0 17 C-0.33 17 -0.66 17 -1 17 C-1.22786458 15.01432292 -1.45572917 13.02864583 -1.68359375 11.04296875 C-1.97170735 8.80603607 -1.97170735 8.80603607 -3 6 C-2.01 6 -1.02 6 0 6 C0 4.02 0 2.04 0 0 Z " fill="#C4C4C4" transform="translate(534,9)"/>
<path d="M0 0 C0.66 0.33 1.32 0.66 2 1 C-2.62 5.62 -7.24 10.24 -12 15 C-12.66 14.67 -13.32 14.34 -14 14 C-9.33333333 9.33333333 -4.66666667 4.66666667 0 0 Z " fill="#D1D1D1" transform="translate(421,102)"/>
<path d="M0 0 C0.33 0 0.66 0 1 0 C1 2.97 1 5.94 1 9 C0.01 9.33 -0.98 9.66 -2 10 C-2 11.32 -2 12.64 -2 14 C-0.02 14.495 -0.02 14.495 2 15 C0.35 15 -1.3 15 -3 15 C-3.35050464 9.158256 -3.16727335 5.1468192 0 0 Z " fill="#C7C7C7" transform="translate(572,11)"/>
<path d="M0 0 C0 3 0 3 -2.046875 5.4453125 C-2.93890625 6.32960937 -3.8309375 7.21390625 -4.75 8.125 C-5.63171875 9.01445312 -6.5134375 9.90390625 -7.421875 10.8203125 C-9.79524738 12.82689097 -10.97723274 13.64687298 -14 14 C-9.33333333 9.33333333 -4.66666667 4.66666667 0 0 Z " fill="#C5C5C5" transform="translate(184,214)"/>
<path d="M0 0 C2.97 0 5.94 0 9 0 C9 0.33 9 0.66 9 1 C11.31 1.33 13.62 1.66 16 2 C16 2.33 16 2.66 16 3 C10.39 3 4.78 3 -1 3 C-0.67 2.01 -0.34 1.02 0 0 Z " fill="#3A3A3A" transform="translate(358,45)"/>
<path d="M0 0 C1.21386936 3.64160808 0.6674695 4.33165469 -0.9375 7.6875 C-1.31777344 8.49574219 -1.69804688 9.30398438 -2.08984375 10.13671875 C-2.39019531 10.75160156 -2.69054687 11.36648438 -3 12 C-3.99 11.67 -4.98 11.34 -6 11 C-4.54955729 6.89041233 -2.48889248 3.56741255 0 0 Z " fill="#484848" transform="translate(744,524)"/>
<path d="M0 0 C-1.47721422 3.45201639 -3.43794001 5.64961936 -6.125 8.25 C-6.84945313 8.95640625 -7.57390625 9.6628125 -8.3203125 10.390625 C-8.87460937 10.92171875 -9.42890625 11.4528125 -10 12 C-10 8.07290865 -8.72099538 7.1810287 -6.125 4.3125 C-5.04605469 3.10013672 -5.04605469 3.10013672 -3.9453125 1.86328125 C-2 0 -2 0 0 0 Z " fill="#353535" transform="translate(478,144)"/>
<path d="M0 0 C0 3 0 3 -1.96875 5.26171875 C-2.8040625 6.06222656 -3.639375 6.86273437 -4.5 7.6875 C-5.3353125 8.49574219 -6.170625 9.30398438 -7.03125 10.13671875 C-7.6809375 10.75160156 -8.330625 11.36648438 -9 12 C-9.66 11.67 -10.32 11.34 -11 11 C-9.92173635 9.72486237 -8.83714481 8.45507431 -7.75 7.1875 C-7.14671875 6.47980469 -6.5434375 5.77210938 -5.921875 5.04296875 C-4.07629602 3.08110329 -2.20054668 1.54330375 0 0 Z " fill="#CDCDCD" transform="translate(201,629)"/>
<path d="M0 0 C0.99 0 1.98 0 3 0 C3 3.63 3 7.26 3 11 C0 8 0 8 -0.29296875 5.95703125 C-0.1953125 3.97135417 -0.09765625 1.98567708 0 0 Z " fill="#C1C1C1" transform="translate(537,4)"/>
<path d="M0 0 C0.66 0.33 1.32 0.66 2 1 C0.71451591 2.33929505 -0.57858155 3.67128643 -1.875 5 C-2.59429687 5.7425 -3.31359375 6.485 -4.0546875 7.25 C-6 9 -6 9 -8 9 C-6.4169423 4.7257442 -3.49431596 2.73468206 0 0 Z " fill="#3E3E3E" transform="translate(252,675)"/>
<path d="M0 0 C0.66 0 1.32 0 2 0 C2.33 3.3 2.66 6.6 3 10 C1.68 10 0.36 10 -1 10 C-0.67 6.7 -0.34 3.4 0 0 Z " fill="#EAEAEA" transform="translate(674,9)"/>
<path d="M0 0 C0.99 0 1.98 0 3 0 C3 3.3 3 6.6 3 10 C0 7 0 7 -0.1875 3.3125 C-0.125625 2.219375 -0.06375 1.12625 0 0 Z " fill="#C1C1C1" transform="translate(573,4)"/>
<path d="M0 0 C2.31 1.65 4.62 3.3 7 5 C5.125 6.0625 5.125 6.0625 3 7 C2.34 6.67 1.68 6.34 1 6 C0.375 2.9375 0.375 2.9375 0 0 Z " fill="#CFCFCF" transform="translate(676,489)"/>
<path d="M0 0 C0.66 0.66 1.32 1.32 2 2 C-0.31 4.31 -2.62 6.62 -5 9 C-5.66 8.67 -6.32 8.34 -7 8 C-4.69 5.36 -2.38 2.72 0 0 Z " fill="#C9C9C9" transform="translate(669,647)"/>
<path d="M0 0 C2.79872437 2.52788007 4.45773019 4.20411134 5 8 C3 8 3 8 0.375 5.5 C-0.40875 4.675 -1.1925 3.85 -2 3 C-1 1 -1 1 0 0 Z " fill="#7A7A7A" transform="translate(126,625)"/>
<path d="M0 0 C-3.6441774 2.4294516 -5.71241272 2.16179575 -10 2 C-10 1.34 -10 0.68 -10 0 C-6.33694766 -0.74926071 -3.57644848 -1.2380014 0 0 Z " fill="#888888" transform="translate(358,47)"/>
<path d="M0 0 C0.66 0.33 1.32 0.66 2 1 C2 2.65 2 4.3 2 6 C1.01 6 0.02 6 -1 6 C-1 5.01 -1 4.02 -1 3 C-1.99 2.67 -2.98 2.34 -4 2 C-2.125 0.9375 -2.125 0.9375 0 0 Z " fill="#C4C4C4" transform="translate(746,4)"/>
<path d="M0 0 C0.66 0 1.32 0 2 0 C3.04005702 3.38018531 3.08004482 6.4780279 3 10 C2.34 9.67 1.68 9.34 1 9 C0.5859375 6.93359375 0.5859375 6.93359375 0.375 4.4375 C0.30023438 3.61121094 0.22546875 2.78492188 0.1484375 1.93359375 C0.09945312 1.29550781 0.05046875 0.65742187 0 0 Z " fill="#5D5D5D" transform="translate(79,518)"/>
<path d="M0 0 C0.33 0.99 0.66 1.98 1 3 C-0.98 4.98 -2.96 6.96 -5 9 C-5.66 8.67 -6.32 8.34 -7 8 C-4.69 5.36 -2.38 2.72 0 0 Z " fill="#DADADA" transform="translate(354,384)"/>
</svg>
